<?xml version="1.0" encoding="UTF-8" standalone="no"?><!DOCTYPE svg PUBLIC "-//W3C//DTD SVG 1.1//EN" "http://www.w3.org/Graphics/SVG/1.1/DTD/svg11.dtd"><svg width="100%" height="100%" viewBox="0 0 8055 1696" version="1.1" xmlns="http://www.w3.org/2000/svg" xmlns:xlink="http://www.w3.org/1999/xlink" xml:space="preserve" xmlns:serif="http://www.serif.com/" style="fill-rule:evenodd;clip-rule:evenodd;stroke-linejoin:round;stroke-miterlimit:2;"><g id="Banner"><path d="M5860.14,1062.72l0.677,0.031l0.347,0.031l0.4,0.047l0.469,0.078l0.625,0.14l0.764,0.264l0.747,0.358l0.834,0.545l0.416,0.389l0.539,0.576l0.434,0.637l-0,0.016l0.417,0.887l0.226,0.934l-0,0.015l0.069,0.654l-0.035,0.653l-0.121,0.638l-0,0.016l-0.261,0.778l-0.382,0.731l-0.33,0.529l-0.747,0.747l-0.625,0.467l-0.556,0.342l-0.608,0.296l-0.521,0.186l-0.416,0.14l-0.348,0.094l-0.312,0.093l-0.313,0.062l-0.313,0.078l-0.33,0.062l-0.642,0.125l-0.695,0.109l-0.764,0.124l-0.834,0.125l-0.903,0.124l-0.972,0.125l-1.042,0.124l-1.112,0.125l-1.181,0.14l-1.233,0.124l-1.32,0.125l-1.372,0.14l-1.442,0.124l-1.511,0.125l-1.545,0.124l-1.633,0.124l-1.667,0.125l-1.737,0.109l-1.789,0.109l-1.841,0.109l-6.912,0.389l-0.521,0.031l-6.409,0.233l-20.789,0.654l-6.947,0.186l-3.456,0.094l-6.947,0.187l-3.456,0.077l-3.474,0.078l-3.473,0.093l-3.474,0.063l-6.947,0.155l-3.456,0.063l-13.894,0.248l-17.368,0.234l-3.473,0.031l-5.471,0.047l-1.806,0.015l-3.665,0.031l-5.488,0.031l-10.941,0.063l-10.942,0.031l-5.471,-0l-5.471,0.015l-16.412,0l-21.883,-0.031l-21.883,-0.062l-32.79,-0.093l-32.79,-0.047l-23.273,0l-23.255,0.016l-23.273,-0l-23.272,0.015l-23.255,0.031l-23.273,0.016l-46.545,0.062l-46.528,0.047l-46.545,0.046l-23.273,0.032l-93.09,0.062l-23.273,-0l-23.272,-0.016l-23.273,0l-23.272,-0.015l-14.815,-0.016l-8.458,-0.015l-69.818,-0.141l-11.636,-0.031l-11.636,-0.046l-11.636,-0.031l-46.546,-0.187l-58.181,-0.311l-23.273,-0.156l-16.568,-0.109l-16.569,-0.14l-16.551,-0.124l-16.569,-0.156l-16.551,-0.14l-16.569,-0.171l-16.551,-0.171l-16.534,-0.171l-16.552,-0.187l-16.551,-0.202l-16.534,-0.203l-8.753,-0.109l-7.781,-0.093l-16.534,-0.233l-16.534,-0.218l-16.534,-0.234l-16.516,-0.233l-16.534,-0.249l-16.517,-0.265l-16.516,-0.248l-16.517,-0.265l-16.517,-0.28l-16.516,-0.265l-16.517,-0.28l-16.499,-0.295l-16.516,-0.28l-16.5,-0.296l-16.499,-0.311l-16.499,-0.296l-49.498,-0.933l-16.482,-0.327l-16.499,-0.327l-16.482,-0.327l-16.499,-0.326l-16.482,-0.327l-0.052,-0l-32.911,-0.685l-32.981,-0.684l-32.947,-0.701l-32.964,-0.7l-65.892,-1.4l-65.893,-1.416l-32.946,-0.7l-32.929,-0.7l-32.946,-0.701l-32.929,-0.684l-32.929,-0.669l-16.482,-0.343l-65.858,-1.307l-16.482,-0.326l-32.929,-0.623l-16.482,-0.311l-32.929,-0.591l-16.482,-0.296l-16.464,-0.296l-16.482,-0.28l-16.464,-0.28l-16.482,-0.28l-16.465,-0.264l-16.482,-0.265l-32.963,-0.498l-16.465,-0.249l-16.482,-0.233l-15.96,-0.218l-0.521,-0.015l-16.482,-0.218l-16.499,-0.218l-16.482,-0.218l-16.482,-0.202l-16.482,-0.187l-16.499,-0.187l-16.482,-0.186l-16.499,-0.172l-32.999,-0.311l-32.998,-0.28l-32.999,-0.249l-16.516,-0.093l-16.499,-0.109l-33.034,-0.156l-33.033,-0.124l-33.033,-0.062l-16.534,-0.031l-49.584,-0l-33.068,0.062l-8.267,0.031l-8.267,0.015l-8.285,0.032l-8.266,0.031l-8.267,0.046l-8.285,0.031l-8.267,0.047l-8.284,0.047l-8.267,0.047l-8.284,0.046l-8.267,0.062l-16.569,0.125l-8.267,0.062l-8.284,0.062l-33.138,0.312l-33.137,0.373l-8.284,0.109l-8.285,0.093l-8.302,0.109l-8.284,0.125l-8.302,0.109l-8.284,0.124l-9.344,0.14l-7.155,0.109l-8.215,0.125l-8.198,0.14l-8.214,0.124l-8.198,0.14l-8.215,0.156l-8.197,0.14l-8.215,0.155l-8.198,0.156l-8.215,0.155l-8.197,0.172l-8.198,0.155l-8.214,0.171l-8.198,0.172l-16.412,0.357l-16.395,0.358l-16.413,0.374l-16.395,0.389l-6.825,0.155l-9.57,0.218l-16.412,0.389l-81.975,2.023l-32.79,0.825l-65.58,1.618l-16.395,0.389l-9.778,0.233l-6.617,0.156l-32.79,0.747l-16.413,0.358l-8.197,0.186l-24.593,0.514l-8.197,0.155l-8.198,0.171l-11.671,0.218l-5.835,0.094l-5.836,0.077l-5.835,0.094l-5.836,0.062l-5.835,0.078l-11.671,0.124l-5.853,0.063l-11.671,0.108l-11.654,0.094l-11.671,0.109l-11.671,0.093l-11.671,0.109l-5.818,0.047l-11.671,0.124l-5.818,0.062l-5.836,0.078l-5.818,0.062l-5.835,0.094l-5.818,0.078l-5.819,0.093l-5.818,0.109l-5.835,0.109l-5.801,0.109l-1.442,0.031l-1.597,0.047l-1.737,0.062l-1.858,0.062l-1.963,0.078l-2.067,0.078l-2.136,0.093l-2.188,0.093l-2.241,0.109l-2.257,0.109l-4.551,0.218l-4.463,0.233l-4.238,0.218l-3.908,0.218l-1.771,0.109l-1.633,0.093l-0.816,0.063l-0.677,0.046l-1.32,0.094l-0.556,0.046l-0.365,0.343l-1.233,0.015l-0.938,0.016l-0.399,-0l-0.348,-0.016l-0.399,-0.015l-0.643,-0.063l-0.399,-0.093l-0.66,-0.202l-0.608,-0.296l-0.017,0l-0.573,-0.373l-0.504,-0.452l-0.434,-0.497l-0.348,-0.561l-0.26,-0.638l-0.156,-0.653l-0.035,-0.669l0.087,-0.669l0.208,-0.654l0.295,-0.622l0.417,-0.56l0.504,-0.498l-0,-0.016l0.504,-0.373l0.573,-0.311l0.608,-0.249l0.347,-0.109l0.573,-0.109l0.382,-0.047l0.33,-0.047l0.347,-0.031l0.799,-0.062l0.99,-0.062l1.181,-0.062l1.355,-0.078l0.695,-0.047l0.816,-0.047l1.667,-0.108l1.806,-0.109l3.926,-0.218l4.255,-0.249l4.48,-0.234l2.293,-0.108l2.292,-0.125l2.276,-0.109l2.257,-0.093l2.206,-0.109l2.154,-0.093l2.084,-0.094l1.997,-0.078l1.893,-0.062l1.772,-0.062l1.632,-0.047l1.494,-0.046l11.671,-0.249l5.835,-0.109l5.836,-0.094l5.835,-0.109l5.836,-0.093l23.342,-0.311l11.671,-0.125l11.671,-0.14l11.671,-0.109l11.671,-0.124l11.654,-0.125l11.671,-0.124l5.818,-0.078l5.835,-0.078l5.818,-0.077l5.836,-0.078l5.818,-0.094l5.836,-0.093l5.818,-0.093l11.636,-0.218l5.836,-0.125l8.18,-0.186l32.79,-0.747l8.18,-0.202l16.395,-0.389l16.395,-0.421l16.378,-0.42l6.617,-0.171l9.778,-0.249l16.395,-0.435l16.377,-0.436l16.395,-0.451l16.395,-0.436l49.185,-1.354l32.79,-0.918l16.395,-0.451l16.395,-0.436l16.413,-0.451l16.395,-0.436l9.569,-0.249l6.826,-0.186l16.412,-0.42l32.825,-0.809l16.412,-0.389l8.198,-0.203l8.215,-0.186l8.197,-0.187l8.215,-0.171l8.215,-0.187l8.215,-0.171l8.197,-0.171l16.43,-0.343l32.859,-0.622l7.156,-0.125l1.059,-0.015l8.285,-0.14l8.301,-0.125l8.302,-0.14l8.302,-0.124l8.284,-0.125l8.302,-0.108l8.284,-0.125l8.302,-0.109l8.284,-0.109l8.302,-0.093l8.284,-0.109l16.569,-0.187l8.302,-0.093l8.284,-0.078l8.284,-0.093l8.285,-0.078l8.284,-0.062l16.569,-0.156l8.284,-0.062l8.267,-0.062l8.284,-0.047l8.285,-0.062l8.284,-0.047l8.267,-0.062l8.284,-0.047l8.267,-0.031l8.285,-0.047l8.267,-0.031l24.818,-0.093l8.284,-0.016l8.267,-0.031l24.801,-0.047l10.421,0l6.131,-0.015l24.8,-0l8.267,0.015l16.517,0.016l16.534,0.031l16.517,0.047l16.516,0.062l16.534,0.062l16.517,0.062l16.516,0.094l16.499,0.093l16.517,0.094l16.499,0.124l16.517,0.109l32.998,0.28l16.517,0.14l16.482,0.156l32.998,0.342l16.499,0.187l16.482,0.186l16.499,0.187l16.482,0.202l0.539,0.016l15.96,0.202l32.964,0.436l16.482,0.233l16.482,0.249l16.482,0.234l16.482,0.249l65.927,1.058l16.464,0.28l16.482,0.28l16.465,0.295l16.482,0.281l16.481,0.295l16.465,0.296l16.464,0.311l16.482,0.296l16.465,0.311l16.482,0.311l16.464,0.311l16.465,0.327l32.946,0.638l32.946,0.653l32.929,0.654l32.946,0.669l32.947,0.654l131.785,2.676l32.964,0.669l32.946,0.653l32.964,0.654l32.929,0.638l16.516,0.311l16.5,0.327l32.963,0.622l32.999,0.623l16.482,0.295l49.497,0.887l49.498,0.84l16.516,0.265l16.5,0.264l16.516,0.265l16.499,0.249l16.517,0.249l16.517,0.233l16.516,0.249l16.534,0.218l16.517,0.233l16.534,0.203l16.516,0.217l7.798,0.094l8.736,0.109l16.534,0.202l16.534,0.187l16.534,0.171l16.551,0.171l16.534,0.171l33.103,0.311l16.551,0.14l16.552,0.125l16.568,0.124l16.552,0.109l11.636,0.078l11.636,0.062l11.619,0.063l23.273,0.124l11.619,0.047l11.636,0.062l11.636,0.047l11.619,0.046l11.636,0.031l11.637,0.047l34.891,0.093l23.273,0.047l23.255,0.047l23.273,0.031l8.458,-0l14.814,0.015l23.255,0.016l69.818,0l93.073,-0.062l69.818,-0.094l46.527,-0.062l46.546,-0.046l46.545,-0.063l46.528,-0.031l23.272,0l23.273,-0.015l32.824,0.046l32.808,0.094l10.924,0.015l10.942,0.031l21.848,0.031l16.395,0l5.454,-0.015l5.47,-0l5.454,-0.016l5.471,-0.031l5.453,-0.015l10.924,-0.063l3.647,-0.031l1.807,0l5.453,-0.046l3.456,-0.016l6.93,-0.062l3.456,-0.031l3.456,-0.047l3.456,-0.031l6.913,-0.093l3.473,-0.063l3.456,-0.046l3.456,-0.063l3.457,-0.046l6.912,-0.125l3.456,-0.078l3.456,-0.062l13.825,-0.311l3.456,-0.093l3.456,-0.078l6.912,-0.187l6.913,-0.202l6.895,-0.202l6.391,-0.203l0.521,0l6.895,-0.093l1.789,-0.016l1.719,-0.046l1.667,-0.031l1.616,-0.063l1.563,-0.046l1.493,-0.063l1.442,-0.062l1.372,-0.062l1.32,-0.078l1.233,-0.062l1.181,-0.078l1.094,-0.078l1.025,-0.077l0.955,-0.078l0.868,-0.078l0.782,-0.078l0.087,-0.015l2.414,-0.903l0.712,-0.015l0.365,0.015l0.33,0Zm-0.521,11.001l0.191,0.015l-0.087,-0.015l-0.122,-0l0.122,-0l-0.157,-0.016l0.053,0.016Z"/><rect x="-0.035" y="0" width="8051.76" height="1693.57" style="fill:none;"/><g><g><path d="M565.602,1066.29c-1.681,0.005 1.193,-3.637 1.985,-6.053c0.617,-1.859 -1.245,-7.152 -2.037,-8.721c-1.283,-2.544 -14.292,-17.272 -10.145,-21.448c2.201,-2.231 19.824,6.383 23.514,7.305c4.884,1.189 18.885,-2.668 22.163,0.587c1.428,1.404 0.035,9.894 0.043,12.09c0.04,11.588 2.102,23.698 2.141,34.908c0.011,3.252 -2.025,14.103 2.733,14.086c7.522,-0.026 4.669,-9.639 4.654,-14.112c-0.033,-9.325 0.426,-21.648 -1.45,-30.885c-0.689,-3.359 -3.213,-11.794 -1.396,-15.433c0.754,-1.521 13.276,-2.242 14.751,-2.749c8.042,-2.712 22.465,-2.247 30.191,-6.137c15.641,-7.888 33.965,-19.731 40.831,-37.077c7.967,-20.115 7.493,-39.536 3.812,-61.115c-1.661,-9.794 -1.72,-22.765 -6.142,-31.532c-0.846,-1.664 -9.03,-0.931 -10.757,-2.646c-11.208,-11.13 -23.532,-47.181 -14.999,-64.411c3.23,-6.49 10.97,-6.328 14.063,-9.442c1.446,-1.456 -0.708,-12.766 -0.715,-14.772c-0.027,-7.698 -1.393,-14.565 -1.422,-22.82c-0.009,-2.507 2.581,-6.203 1.98,-7.394c-1.856,-3.693 -8.596,-8.698 -4.056,-8.714c0.007,1.992 -3.528,-5.003 -4.046,-6.031c-1.856,-3.68 -2.401,-8.395 -6.087,-12.056c-8.556,-8.509 -19.069,-14.883 -29.614,-22.735c-11.143,-8.283 2.068,-17.139 5.931,-28.891c5.016,-15.211 -3.184,-38.387 -6.895,-53.013c-4.466,-17.618 -15.188,-33.33 -31.698,-41.513c-2.634,-1.306 -9.989,-11.514 -6.775,-14.751c15.222,-15.328 9.853,-23.794 15.968,-42.358c3.26,-9.865 15.717,-17.187 13.332,-28.916c-2.965,-14.56 -21.026,-43.517 -39.705,-24.706c-3.917,3.958 -8.108,18.584 -4.601,25.538c2.129,4.235 10.106,10.035 10.106,10.035c-0,0 -7.908,9.855 -10.694,15.476c-2.356,4.752 -3.865,11.168 -5.992,15.459c-1.413,2.865 1.411,8.019 -0.629,10.073c-1.269,1.278 -3.434,-1.398 -4.712,-2.668c-5.944,-5.902 9.426,-13.763 -0.73,-18.796c-11.242,-5.573 -28.348,-17.319 -43.014,-9.921c-2.016,1.01 -7.025,-1.019 -8.727,0.708c-4.025,4.04 -6.15,20.339 -11.323,25.548c-2.229,2.245 -18.122,0.077 -13.399,9.454c3.48,6.873 14.109,-0.05 18.149,3.962c3.291,3.268 -3.974,14.761 -3.96,18.813c0.006,1.613 9.414,6.012 6.064,9.372c-0.756,0.762 -5.611,0.141 -6.706,0.701c-6.996,3.521 -16.027,10.032 -20.078,18.192c-10.404,21.004 -20.741,41.927 -27.983,63.883c-4.493,13.651 0.267,30.102 -2.529,44.33c-2.011,10.268 -6.094,32.579 -1.195,42.293c4.286,8.484 -6.389,21.804 -3.915,31.581c0.88,3.44 1.061,8.766 2.726,12.067c0.873,1.732 4.339,0.595 5.377,2.665c2.525,5.007 -0.264,17.798 3.436,21.485c4.407,4.376 6.458,9.574 8.794,18.769c7.215,28.438 3.191,59.884 9.038,88.585c2.786,13.666 4.23,35.198 1.513,49.019c-0.919,4.666 0.456,10.327 -2.637,13.428c-6.956,7.005 -41.213,16.964 -32.778,33.688c2.143,4.248 10.874,8.609 15.466,8.011c13.941,-1.852 45.901,-9.811 45.901,-9.811c-0,-0 -0.416,-22.146 -0.376,-29.967c0.055,-11.535 5.27,-27.804 5.229,-39.637c-0.024,-6.939 0.592,-20.807 0.592,-20.807c-0,-0 0.595,11.221 1.4,16.775c1.638,11.122 4.162,19.585 8.829,28.839c5.255,10.419 -9.341,30.15 -2.531,43.653c4.736,9.39 22.077,14.656 32.97,17.343c2.143,0.534 14.098,0.52 14.098,0.615" style="fill:#231f20;"/></g><g><path d="M955.369,609.365c-2.934,-10.308 -3.977,-19.11 -6.563,-29.456c-1.834,-7.316 -7.837,-9.015 -10.829,-15.018c-1.178,-2.355 -0.618,-6.852 -1.043,-9.439c-1.158,-6.891 -3.185,-13.473 -4.536,-20.249c-1.119,-5.578 1.66,-11.697 0.695,-17.469c-0.54,-3.204 -2.837,-7.373 -4.555,-9.091c-1.506,-1.506 -4.479,-0.869 -5.231,-3.127c-1.718,-5.154 5.404,-6.409 6.64,-10.134c2.104,-6.332 -8.378,-16.871 2.451,-19.574c7.355,-1.833 9.227,6.93 10.462,11.891c0.309,1.158 0.367,5.115 1.757,5.579c2.123,0.714 9.304,2.625 8.377,6.292c-0.772,3.069 -3.899,4.749 -4.883,7.683c-1.081,3.243 0.579,8.667 1.042,11.871c1.158,8.146 4.15,17.566 8.744,24.457c2.336,3.513 5.366,5.945 6.274,10.481c2.007,10.019 -2.085,21.156 -2.085,31.078c-0,10.867 4.073,20.442 4.884,31.097c-0,0.039 -0,0.077 0.019,0.135c1.428,1.1 2.49,2.239 3.069,3.378c8.937,17.874 3.339,35.691 14.863,52.986c7.586,11.37 17.411,15.308 27.893,22.295c6.428,4.305 4.98,13.551 11.157,17.662c4.961,3.32 16.909,5.926 19.515,11.157c3.629,7.258 6.679,17.836 11.157,22.315c2.644,2.644 0.096,12.18 2.799,14.882c4.555,4.556 -6.216,17.025 -3.726,19.515c3.996,3.996 13.454,19.882 15.809,26.947c4.343,13.087 -17.218,34.224 -6.524,52.06c5.038,8.397 9.034,19.168 14.882,26.966c5.232,6.988 16.678,2.722 21.388,7.432c3.359,3.358 1.351,18.704 4.633,24.167c8.551,14.245 21.04,30.19 25.113,46.481c3.629,14.535 -15.25,52.62 -26.966,60.418c-15.636,10.424 -30.962,22.836 -50.188,26.04c-10.056,1.66 -20.634,0.174 -30.691,1.853c-8.493,1.409 -23.569,3.088 -31.599,-0.927c-8.493,-4.246 -15.075,-11.717 -23.24,-15.809c-3.9,-1.949 -7.432,4.343 -11.157,5.579c-11.157,3.725 -44.899,-4.285 -50.188,-14.863c-3.764,-7.509 13.01,-21.639 13.01,-30.692c0,-5.463 -5.906,-14.323 -7.431,-20.442c-1.602,-6.37 3.011,-23.202 4.632,-29.745c5.521,-22.025 -8.087,-47.138 -23.221,-62.291c-3.146,-3.127 -3.822,-7.624 -5.578,-11.157c-0.483,-0.926 1.023,-7.432 -0.946,-7.432c-2.529,0 -7.239,28.627 -10.211,31.619c-8.474,8.474 -12.161,23.317 -18.589,29.745c-2.297,2.278 2.915,8.223 0.927,10.212c-10.192,10.191 -15.983,28.24 -23.241,42.775c-1.158,2.316 8.821,7.451 5.579,13.936c-4.691,9.362 -9.459,19.187 -12.084,29.746c-3.687,14.69 7.991,11.331 12.084,19.515c1.331,2.683 0.54,6.66 1.853,9.304c0.945,1.892 5.347,11.37 2.799,13.937c-4.324,4.324 -10.154,-1.853 -15.809,-1.853c-9.459,-0 -38.201,-7.065 -44.629,-16.079c1.043,-3.089 2.703,-7.799 3.726,-10.887c1.911,-5.733 9.246,-26.117 6.505,-31.599c-6.949,-13.917 3.185,-27.758 10.23,-41.829c9.652,-19.323 13.242,-41.965 21.369,-62.291c10.211,-25.518 -2.568,-59.646 2.799,-86.438c5.887,-29.475 30.015,-47.292 39.03,-74.374c2.49,-7.412 5.019,-15.037 7.451,-22.314c1.389,-4.208 -1.178,-15.539 1.853,-18.589c3.262,-3.262 5.984,-11.968 8.358,-16.735c3.996,-7.953 17.179,-18.106 23.24,-24.168c4.556,-4.555 -3.011,-21.85 0,-27.873c4.807,-9.593 19.458,-33.51 32.545,-26.966c2.992,1.506 7.914,2.529 14.13,5.424Zm-171.564,438.137c0.097,0.154 0.213,0.328 0.328,0.502c-0.405,1.196 -0.714,2.162 -0.849,2.663l-0.077,0.406c-0.039,0.038 -0.019,-0.116 0.077,-0.406l0.521,-3.165c-1.486,-2.432 -1.332,-5 1.255,-7.586l-1.255,7.586Z" style="fill:#231f20;"/></g><g id="Jonas"><path d="M1308.57,695.877l12.559,-20.684c-0.029,-0.014 -0.057,-0.042 -0.086,-0.071c-0.227,-0.227 0.611,-1.363 0.725,-1.591c0.753,-1.491 2.003,-3.054 3.139,-4.56l2.756,-4.532c1.918,-4.389 2.557,-9.532 4.731,-13.893c1.051,-2.103 4.489,-2.784 5.995,-3.75l1.009,-1.663l4.986,-11.137c-0.725,-0.739 -3.339,-0.213 -4.361,-0.725c-1.563,-0.781 -1.25,-3.579 -2.174,-4.503c-1.193,-1.193 -4.517,-1.747 -5.242,-3.21c-0.44,-0.881 -1.335,-1.506 -1.747,-2.316c-0.398,-0.81 -0.029,-1.96 -0.426,-2.77c-0.27,-0.512 0.397,-2.216 -0,-2.614c-0.91,-0.909 -3.254,0.639 -3.936,-0.725c-0.681,-1.378 -0.852,-5.838 -0.142,-7.273c0.185,-0.369 0.441,-2.742 0.285,-3.054c-0.498,-1.009 -1.932,-0.341 -2.614,-1.023c-0.398,-0.398 -0.284,-2.103 -1.023,-2.472c-0.554,-0.284 -1.79,0.085 -2.174,-0.284c-1.321,-1.321 -1.065,-3.68 -1.449,-5.242c-1.278,-5.058 -1.278,-13.993 2.316,-17.602c1.165,-1.164 -0.156,-6.065 0.582,-7.557c0.682,-1.364 2.884,-1.719 3.935,-2.77c1.734,-1.733 3.055,-4.291 5.228,-5.37c1.677,-0.838 3.935,-1.151 5.683,-2.188c3.807,-2.287 12.444,-7.074 16.138,-5.242c0.44,0.227 1.577,-0.455 1.747,-0.284c0.682,0.682 -0.483,1.435 0.867,1.889c1.534,0.512 3.537,-1.932 4.517,-1.449c1.847,0.924 3.154,2.273 4.645,3.779c0.27,0.256 1.535,-0.028 1.89,0.142c0.398,0.199 0.256,0.696 0.44,0.881c0.654,0.639 2.074,0.327 2.756,1.009c1.563,1.562 3.822,2.656 5.384,4.219c0.299,0.298 -0.511,1.094 -0.142,1.463c0.739,0.725 0.696,0.668 1.165,1.591c0.242,0.483 1.222,0.27 1.449,0.725c0.81,1.605 2.188,2.869 2.188,4.517l12.771,-19.746l4.319,-6.592c-0.725,0 0.838,-0.469 1.193,-0.838c0.938,-0.923 2.06,-2.188 2.642,-3.353c2.117,-4.247 5.356,-7.87 8.24,-11.72c6.265,-8.353 16.777,-13.197 25.471,-18.169c1.748,-1.009 4.703,-1.818 5.981,-3.111c0.298,-0.299 1.051,-0.782 1.321,-1.321c0.085,-0.185 -0.156,-0.597 0.114,-0.597c-0,-0.469 -0.924,-0.213 -1.307,-0.483c-0.767,-0.511 -1.889,-1.406 -2.515,-2.032c-1.548,-1.534 -2.287,-3.508 -2.983,-5.611c-0.881,-2.642 -3.352,-3.978 -2.642,-7.543c2.088,-10.428 13.936,-17.175 24.278,-14.59c2.728,0.682 5.27,0.838 7.657,2.642c3.779,2.827 7.288,6.564 8.495,11.351c0.483,1.975 0.185,4.177 0.838,6.109c1.009,3.026 1.648,6.534 0.839,9.802c-1.606,6.421 -6.933,13.368 -12.559,16.734c-3.153,1.89 -7.273,3.566 -9.816,6.109c-1.023,1.023 0.469,2.756 -1.676,3.822c-1.108,0.554 -2.913,-0.512 -3.694,-0.114c-1.293,0.639 -3.139,2.529 -4.191,3.58c-0.966,0.966 -3.338,1.662 -3.949,2.869c-0.043,0.086 -0.625,0.583 -0.483,0.725c0.313,0.312 1.719,0.966 2.032,1.264c-0.071,0.043 -0.114,0.1 -0.114,0.171c0.199,-0 0.213,-0.071 0.114,-0.171c0.525,-0.312 2.855,0.043 3.239,0.171c2.216,0.738 1.619,4.091 2.514,5.853c0.27,0.539 0.497,2.017 -0.242,2.4c-3.082,1.535 -5.952,-0.426 -7.543,-3.594c-0.369,-0.753 0.583,-3.125 0,-3.707c-0.582,-0.583 -1.307,-0.952 -1.79,-1.435c-0.298,-0.299 0.654,1.79 0.725,2.031c0.284,1.165 1.037,3.509 -0,4.546c-1.648,1.648 -5.072,2.373 -7.174,1.321c-0.512,-0.255 -1.805,-0.44 -1.805,-0.966c-0.312,-0.312 -1.008,1.151 -1.193,1.435c-1.023,1.534 -1.108,3.992 -1.548,5.739c-0.071,0.256 -0.1,1.506 -0.114,1.875c-0.085,0.029 -0.099,0.043 -0.014,0.043c-0,0.114 -0,0.071 0.014,-0.043c0.185,-0.056 0.753,-0.142 0.952,-0.071c0.596,0.199 1.989,0.725 2.742,0.356c0.468,-0.228 0.71,-1.123 1.321,-1.435c1.633,-0.824 5.029,1.591 5.497,2.983c0.285,0.838 1.549,1.449 1.194,2.515c-0.853,2.557 -5.242,3.239 -7.416,2.159c-2.372,-1.193 -1.506,-3.949 -4.773,-3.949c-0.952,-0 -0.355,4.034 -0.725,4.787c-0.269,0.554 -2.187,3.438 -2.272,3.58c-0,-0.753 -3.069,-0.625 -3.822,-1.193c-2.585,-1.932 -7.003,-2.273 -10.285,-2.273c-0.938,-0 -2.515,-0.299 -3.353,0.113c-7.529,3.779 -12.16,13.581 -15.783,20.812c-1.292,2.6 -3.139,5.143 -4.19,7.771c-0.228,0.596 -1.08,2.614 -1.251,3.253l0,0.014c-0.056,0.199 -0.028,0.256 0.114,0.057c-0.057,-0.028 -0.099,-0.043 -0.114,-0.057l0,-0.014c0.029,-0.014 0.072,-0.014 0.185,-0.014l-0.071,0.085c0.213,0.071 0.625,0.185 0.668,0.27c0.497,0.994 1.804,1.719 2.145,2.756c0.298,0.895 -0.54,2.358 -0.966,3.012c-0.142,0.085 -0.227,0.199 -0.227,0.326c-0,0 0.085,-0.127 0.227,-0.326c0.341,-0.228 0.966,-0.285 1.207,-0.142c0.398,0.241 0.37,0.909 0.839,1.193c1.378,0.824 2.812,1.563 4.19,2.386c0.81,0.483 1.734,0.682 2.501,1.194c0.71,0.469 1.022,1.477 1.676,1.918c0.98,0.653 2.245,0.809 2.997,1.548c0.938,0.952 3.808,-0.241 4.774,0.725c0.568,0.568 2.798,-0.54 3.352,-0.725c3.793,-1.264 8.069,0.185 11.834,-1.065c1.548,-0.526 3.296,0.369 4.674,0.71c2.23,0.568 4.673,1.023 6.819,1.563c2.571,0.639 5.057,3.849 7.174,5.256c1.818,1.222 4.972,0.554 6.577,2.159c1.776,1.776 3.324,4.077 4.66,6.095c0.568,0.852 1.008,2.145 1.917,2.741c5.725,3.836 10.811,6.876 14.59,13.155c1.364,2.287 1.463,6.094 0.838,8.623c-0.369,1.478 0.611,3.012 0.227,4.532c-0.838,3.381 -4.006,9.546 -7.642,10.768c-2.089,0.696 -6.066,1.492 -8.382,0.725c-0.639,-0.228 -1.321,-0.725 -2.031,-0.725c-0,2.031 0.852,4.475 1.42,6.634c0.924,3.509 1.478,7.231 2.145,10.783c0.682,3.636 0.469,7.373 0.824,11.023c0.512,5.342 1.236,10.698 1.89,15.996c0.596,4.774 -0.043,9.661 0.241,14.462c0.37,6.222 0.242,12.274 0.242,18.482c-0,5.399 1.307,11.834 0.227,17.19c-0.227,1.164 -0.938,3.125 -0.938,4.02c-1.065,-0 -0.554,6.265 -0.284,8.154c0.284,1.989 -0.596,4.717 0.284,6.478c0.327,0.654 2.273,1.151 2.813,1.691c2.145,2.145 1.463,9.93 1.122,12.657c-0.724,5.754 0.54,11.393 -0.284,17.147c-1.023,7.131 -4.517,13.297 -6.179,19.974c-0.909,3.622 0.724,7.855 -0,11.521c-2.515,12.558 -4.532,24.832 -8.439,36.566c-1.591,4.759 -2.812,9.745 -2.812,14.902c-0,0.654 -0.27,8.723 -0.569,8.723c-0.88,-0 0.924,1.52 1.407,2.244c0.611,0.924 1.236,2.6 1.69,3.665c1.776,4.148 2.344,9.319 3.097,13.78c0.81,4.844 -1.69,9.845 -0.568,14.348c2.216,8.836 5.839,20.286 3.935,29.804c-1.477,7.43 -2.713,15.229 -4.219,22.787c-0.625,3.125 0.781,6.748 -0,9.845c-0.995,3.992 -2.117,8.864 -3.367,12.643c-0.142,0.426 -0.966,1.889 -1.634,2.642c0.497,1.222 2.032,3.239 2.188,3.552c1.563,3.111 0.909,6.861 2.259,9.561c1.847,3.693 -3.396,8.481 -4.788,11.251c-2.628,5.242 5.299,12.984 0.284,17.999c-0.738,0.739 -2.855,-1.108 -3.935,-0.568c-2.983,1.491 -4.929,1.449 -8.154,2.258c-1.918,0.469 -3.594,2.018 -5.626,2.529c-3.892,0.966 -8.196,0.426 -12.103,1.406c-2.628,0.654 -7.757,-0.028 -10.399,-0.568c-7.387,-1.477 -16.493,-1.96 -23.909,-1.96c-2.386,-0 -0.412,-3.68 0,-4.504c1.037,-2.088 6.578,-6.733 8.723,-7.586c6.052,-2.429 15.683,-8.211 19.405,-13.794c1.08,-1.605 0.27,-2.798 1.691,-4.219c-4.958,0 -3.097,-6.549 -3.097,-9.83c-0,-9.689 6.577,-19.377 5.626,-28.981c-0.782,-7.827 0.98,-16.138 -0.569,-23.894c-0.568,-2.827 -2.273,-5.47 -2.813,-8.155c-1.051,-5.284 2.288,-10.37 -2.244,-14.916c-0.682,-0.668 3.892,-7.629 2.813,-8.708c-4.788,-4.788 -4.504,-11.18 -4.504,-18.283c0,-3.751 2.146,-8.155 1.407,-11.82c-1.407,-7.046 -2.245,-14.021 -3.935,-20.812c-0.924,-3.679 -0.725,-6.776 -2.259,-9.844c-0.213,-0.441 -0.27,-3.126 -0.27,-4.063l0,-0.171l0,0.299c0,-0.313 -1.179,4.432 -1.406,5.625c-0.767,3.793 -2.259,7.43 -2.259,11.251c-0,8.751 -0.824,22.616 -5.626,29.819c-1.165,1.733 -0.852,5.071 -2.244,6.464c-2.174,2.173 0.568,5.071 0.568,8.154c-0,4.958 -1.563,9.944 -0.852,14.902c0.426,2.955 0.994,6.236 0.568,9.291c-1.137,7.941 -4.163,18.61 -2.529,26.707c1.08,5.441 3.097,12.587 1.961,18.283c-1.151,5.782 -3.367,11.393 -3.367,17.161c-0,2.287 2.017,7.487 1.122,9.277c-2.983,5.966 -4.503,11.35 -4.503,18.283c-0,-0.725 -2.287,1.477 -2.813,1.69c-1.861,0.739 -4.191,1.407 -6.18,1.407l-22.502,-0c-7.131,-0 -15.584,-3.183 -23.071,-1.691c-3.935,0.781 -9.944,1.875 -14.064,0.838c-2.869,-0.71 -8.069,-0.937 -10.683,-2.244c-2.571,-1.293 -2.812,-3.381 -6.463,-3.381l1.534,-1.137c-6.35,0 2.898,-7.415 4.219,-8.069c9.007,-4.503 19.136,-6.421 27.375,-10.541c2.586,-1.292 9.092,-1.704 10.882,-3.509c5.242,-5.227 0.043,-9.915 3.168,-16.152c0.753,-1.506 -0.781,-5.185 0.341,-6.307c1.847,-1.847 1.96,-6.166 3.864,-8.084c0.199,-0.198 0.781,-3.153 -0,-3.153c-1.023,-0 -1.932,5.256 -2.458,6.321c-2.813,5.64 -7.358,12.388 -12.984,16.138c-9.22,6.152 -24.079,2.117 -35.103,2.117c-2.131,0 -11.322,-2.372 -12.984,-0.71c-0.91,0.909 -0.498,3.438 -1.066,4.56c-0.568,1.165 -2.926,-0.099 -3.85,1.762c-1.534,3.04 -2.443,7.33 -3.509,10.526c-3.594,10.754 -5.924,23.696 -8.779,35.103c-0.497,1.989 -0.128,5.526 -1.051,7.373c-1.421,2.827 -0.27,6.592 -2.117,8.424c-2.102,2.103 -8.595,0.711 -7.373,-1.747c5.668,-11.322 7.87,-24.946 10.541,-38.271c1.065,-5.313 2.202,-11.834 4.205,-16.848c0.27,-0.668 1.804,-5.569 1.406,-5.967c-0.525,-0.525 -1.974,0.597 -2.457,-0.355c-1.25,-2.5 2.415,-9.163 1.051,-10.527c-1.279,-1.278 -6.62,-0.497 -8.424,-1.406c-6.322,-3.168 -12.913,-4.873 -19.306,-8.069c-14.078,-7.046 -18.255,-26.793 -18.255,-42.121c0,-3.58 -1.264,-7.813 -0.696,-11.237c1.051,-6.322 3.409,-11.905 4.205,-18.255c1.122,-8.921 4.915,-16.322 8.382,-24.051l-1.663,-8.623l-2.628,-63.671l21.437,-35.288c-3.494,-0.653 -7.046,-1.108 -10.498,-1.804c-2.742,-0.554 -5.753,-0.824 -8.524,-1.08c-0.056,0 -0.128,-0.014 -0.184,-0.014c-1.563,1.051 -3.097,1.961 -3.879,2.16c-3.58,0.894 -6.449,-1.563 -9.191,-3.382c-1.151,-0.767 -2.671,-0.823 -3.864,-1.619c-2.6,-1.733 -4.517,-7.373 -4.517,-10.328c-0,-1.463 -0.398,-4.02 -0.171,-4.02c0,-0 -9.688,-5.043 -8.694,-6.535c0.994,-1.506 12.43,4.219 12.43,4.219c0,-1.889 1.492,-3.281 3.055,-4.531c3.324,-2.657 6.776,-5.001 10.668,-6.791c0.725,-0.341 5.981,-2.117 5.981,-2.941c8.936,-8.921 24.449,-12.174 34.237,-21.976c4.347,-4.333 9.489,-8.098 14.518,-11.45c1.208,-0.81 5.469,-3.509 5.469,-2.799c0,-2.031 -3.054,-4.958 -2.003,-7.06c1.378,-2.742 6.123,1.065 7.856,-0.668c0.483,-0.483 0.725,-1.094 1.478,-1.463c0.54,-0.27 1.065,0.327 1.719,-0c1.207,-0.597 0.454,-1.833 0.937,-2.799c0.625,-1.25 2.572,-1.42 3.069,-2.401c0.412,-0.809 0.511,-2.329 0.795,-3.196c0.895,-2.699 4.987,-4.83 8.282,-6.592Zm131.534,320.304c0.014,0.142 0.071,0.327 0.142,0.525c-0.241,0.27 -0.454,0.455 -0.625,0.455c-0.398,0 0.085,-0.526 0.483,-0.98c-0.014,-0.27 0.085,-0.426 0.37,-0.426c-0.086,0.113 -0.228,0.27 -0.37,0.426Zm-209.368,-184.522c0.895,0.625 1.875,1.165 2.727,1.733c5.256,3.509 10.64,5.228 16.564,7.202c2.387,0.796 5.129,1.719 7.558,2.77c0.213,0.086 0.668,0.299 1.193,0.526c-2.301,4.02 -6.392,7.231 -8.367,11.18c-0.739,1.478 -0.156,3.069 -1.051,4.575c-4.731,7.87 -7.586,15.754 -10.428,23.894l-6.435,4.248l-1.761,-56.128Zm25.002,-37.291l0.043,0.014c4.73,1.421 9.489,2.813 14.405,3.367c3.537,0.383 7.06,1.563 10.555,2.159c-0.313,2.117 -0.497,3.964 -0.497,4.617c-0,6.99 -4.376,19.192 -10.882,23.525c-1.463,0.981 -8.041,6.009 -10.186,3.864c-0.341,-0.355 -0.284,0.086 -0.128,0.767c-3.637,-0.014 -13.396,-2.386 -14.902,-2.883c-2.898,-0.966 -7.259,-1.208 -10.441,-1.208c-0.512,0 -1.421,0.043 -2.344,0.114l24.377,-34.336Zm28.37,-3.353c-3.637,-0.596 -7.501,-0.739 -11.152,-1.193c-0.611,-0.071 -1.222,-0.142 -1.847,-0.213l11.422,-17.758l0.426,-0.213c0.696,0.796 2.997,1.265 3.324,2.245c0.299,0.895 -0.17,2.699 -0.426,3.494c-0.241,0.682 0.142,1.606 0,2.316c-0.781,3.892 -1.719,7.316 -1.747,11.322Zm-24.009,-2.784l1.89,-2.657l6.805,3.808c-2.87,-0.27 -5.853,-0.555 -8.695,-1.151Zm-23.965,-4.901c-0.043,0.128 -0.071,0.255 -0.071,0.383c-0.256,0.27 -0.341,-0.312 -0.398,-0.255c-0.426,0.44 -1.193,1.733 -1.193,2.642c-0.256,-0 0.511,0.014 0.667,0.071c0.1,0.028 -0.085,0.27 -0.483,0.625l0.128,0.028c5.697,0.952 11.763,0.796 17.374,1.918l0.483,-0.81c-4.901,-1.406 -9.788,-2.869 -14.746,-4.105c-0.582,-0.156 -1.179,-0.313 -1.761,-0.497Zm34.648,-25.244c-1.548,0.539 -3.054,1.193 -4.546,1.832c-0.809,0.341 -1.491,1.009 -2.315,1.392c-4.162,1.89 -8.438,3.651 -12.53,5.697c-1.335,0.668 -2.699,1.264 -3.978,1.989c-0.369,0.213 -0.994,0.582 -0.994,0.937c0,0.185 -0.781,0.725 -1.136,0.995c-0.895,0.668 -1.975,1.705 -2.856,2.585c-0.639,0.64 -1.364,1.052 -1.847,1.79c-0.497,0.725 -0.525,1.449 -0.795,2.245c-0.256,0.781 -0.753,1.563 -1.208,2.315c0.128,0.057 0.242,0.1 0.284,0.114c1.279,0.512 2.472,1.293 3.836,1.676c3.651,1.052 7.6,2.742 11.067,4.447l17.018,-28.014Z" style="fill:#231f20;"/></g><g><g><g transform="matrix(1,0,0,0.999997,2.27374e-13,0.00302924)"><text x="1927.56px" y="944.413px" style="font-family:'ArialMT', 'Arial', sans-serif;font-size:347.221px;">B</text></g><g transform="matrix(1,0,0,0.999997,0,0.00302924)"><text x="2128.98px" y="944.413px" style="font-family:'ArialMT', 'Arial', sans-serif;font-size:347.221px;">A<tspan x="2365.65px 2578.61px 2835.82px " y="944.413px 944.413px 944.413px ">VAR</tspan>IAN</text></g></g><g><g transform="matrix(1,0,0,0.999997,4.54747e-13,0.00302924)"><text x="3804.73px" y="944.413px" style="font-family:'Futura-Bold', 'Futura', serif;font-weight:700;font-size:347.221px;">B</text></g><g transform="matrix(1,0,0,0.999997,4.54747e-13,0.00302924)"><text x="4041.19px" y="944.413px" style="font-family:'Futura-Bold', 'Futura', serif;font-weight:700;font-size:347.221px;">A<tspan x="4319.65px " y="944.413px ">S</tspan>S</text></g></g><g><g transform="matrix(1,0,0,0.999997,0,0.00302924)"><text x="4875.44px" y="944.413px" style="font-family:'ArialMT', 'Arial', sans-serif;font-size:347.221px;">C</text></g><g transform="matrix(1,0,0,0.999997,9.09495e-13,0.00302924)"><text x="5124.99px" y="944.413px" style="font-family:'ArialMT', 'Arial', sans-serif;font-size:347.221px;">A<tspan x="5382.19px " y="944.413px ">M</tspan>P</text></g></g></g><path d="M3935.32,554.17l43.991,0.038l44.009,0.076l44.026,0.114l44.026,0.152l44.025,0.19l44.061,0.228l22.03,0.133l44.061,0.303l44.095,0.342l22.03,0.209l22.065,0.19l22.048,0.228l22.065,0.228l22.047,0.228l22.065,0.266l22.082,0.265l22.065,0.266l22.083,0.304l11.032,0.152l11.05,0.152l11.032,0.171l11.05,0.152l11.05,0.171l11.032,0.171l22.1,0.341l11.05,0.19l11.049,0.171l22.1,0.38l11.05,0.209l11.049,0.19l11.067,0.209l11.05,0.209l11.067,0.208l11.05,0.209l11.067,0.209l11.05,0.228l22.134,0.456l26.152,0.57l13.059,0.284l26.118,0.608l13.059,0.323l26.083,0.646l13.024,0.341l13.041,0.342l13.025,0.342l13.024,0.361l13.007,0.361l13.024,0.36l52.027,1.52l12.99,0.398l13.007,0.38l12.989,0.399l12.99,0.418l12.989,0.398l12.99,0.418l25.962,0.817l25.962,0.835l51.923,1.709l25.945,0.874l25.961,0.855l51.907,1.728l51.923,1.747l51.958,1.709l25.979,0.835l26.014,0.836l26.014,0.816l13.007,0.418l13.007,0.399l26.048,0.798l13.024,0.379l13.024,0.399l13.042,0.38l13.041,0.361l13.042,0.38l13.041,0.36l5.352,0.152l6.183,0.19l6.945,0.228l7.673,0.247l17.25,0.551l9.439,0.303l9.924,0.323l10.305,0.323l10.669,0.323l10.928,0.323l11.154,0.342l11.309,0.303l5.681,0.171l11.431,0.304l5.715,0.133l5.698,0.152l5.699,0.133l5.663,0.133l5.629,0.133l5.594,0.114l5.542,0.114l5.49,0.095l5.439,0.114l5.351,0.075l5.283,0.095l5.196,0.057l5.092,0.076l4.988,0.057l4.884,0.038l4.78,0.038l4.641,0.019l8.868,0l4.226,-0.019l2.043,0l2.01,-0.019l1.957,-0.019l1.922,-0.019l1.888,-0.038l1.836,-0.019l1.784,-0.038l1.749,-0.038l1.697,-0.038l1.646,-0.038l1.593,-0.057l0.814,-0.019l0.745,-0.038l1.489,-0.056l1.438,-0.057l1.385,-0.057l1.334,-0.076l1.264,-0.057l1.23,-0.076l1.143,-0.076l1.091,-0.095l1.039,-0.076l0.97,-0.095l0.883,-0.095l0.832,-0.095l0.762,-0.095l0.346,-0.057l0.329,-0.057l0.312,-0.038l0.294,-0.057l0.26,-0.038l0.243,-0.057l0.225,-0.057l0.19,-0.038l0.156,-0.038l0.191,-0.057l6.252,4.083l-3.724,6.855l-0.658,0.171l-0.346,0.076l-0.364,0.076l-0.762,0.152l-0.398,0.057l-0.399,0.076l-0.433,0.057l-0.433,0.076l-0.883,0.114l-0.952,0.114l-1.005,0.095l-1.057,0.095l-1.108,0.095l-1.178,0.095l-1.212,0.076l-1.282,0.095l-1.316,0.076l-1.385,0.057l-1.421,0.075l-1.489,0.057l-1.524,0.057l-0.762,0.019l-0.814,0.038l-1.628,0.038l-1.68,0.057l-1.732,0.038l-1.767,0.038l-1.818,0.038l-1.854,0.019l-1.905,0.038l-3.914,0.038l-2.026,0.019l-2.079,0.019l-4.243,0l-4.382,0.019l-4.537,-0.019l-4.659,-0.019l-4.798,-0.019l-4.901,-0.057l-5.005,-0.038l-5.11,-0.076l-5.213,-0.057l-5.299,-0.095l-5.369,-0.076l-5.439,-0.095l-5.49,-0.113l-5.56,-0.114l-5.611,-0.114l-5.646,-0.114l-5.664,-0.133l-5.698,-0.133l-5.715,-0.152l-5.715,-0.133l-5.733,-0.152l-11.396,-0.304l-11.327,-0.323l-11.154,-0.322l-10.946,-0.323l-10.669,-0.323l-10.305,-0.323l-9.924,-0.323l-9.439,-0.285l-17.25,-0.55l-7.672,-0.247l-6.945,-0.228l-6.166,-0.171l-5.334,-0.152l-13.059,-0.361l-13.042,-0.379l-13.041,-0.361l-13.042,-0.38l-13.024,-0.38l-13.041,-0.399l-13.025,-0.379l-13.024,-0.399l-13.007,-0.399l-13.024,-0.399l-26.014,-0.816l-25.996,-0.817l-25.996,-0.835l-25.98,-0.855l-25.979,-0.836l-51.923,-1.709l-51.906,-1.728l-25.962,-0.854l-25.945,-0.855l-25.961,-0.835l-25.945,-0.836l-25.962,-0.835l-25.961,-0.817l-12.99,-0.418l-25.979,-0.797l-12.99,-0.38l-12.989,-0.399l-13.007,-0.38l-12.99,-0.379l-26.013,-0.76l-39.021,-1.082l-39.072,-1.026l-13.042,-0.323l-13.024,-0.342l-13.042,-0.303l-13.041,-0.323l-13.059,-0.304l-13.042,-0.285l-13.076,-0.285l-13.058,-0.285l-13.077,-0.265l-11.049,-0.228l-11.068,-0.228l-11.049,-0.209l-11.067,-0.228l-11.05,-0.209l-11.05,-0.19l-11.05,-0.209l-11.067,-0.19l-11.05,-0.208l-22.099,-0.38l-11.05,-0.171l-11.032,-0.19l-22.1,-0.342l-11.032,-0.171l-11.05,-0.171l-11.033,-0.152l-11.049,-0.152l-11.033,-0.17l-11.05,-0.152l-11.032,-0.133l-22.065,-0.285l-9.474,-0.114l-12.591,-0.171l-44.13,-0.494l-22.047,-0.247l-22.065,-0.208l-22.048,-0.209l-22.03,-0.209l-44.095,-0.342l-22.031,-0.171l-22.03,-0.133l-22.03,-0.152l-22.013,-0.114l-22.03,-0.114l-22.013,-0.114l-22.013,-0.095l-44.026,-0.151l-22.013,-0.057l-21.996,-0.057l-66.004,-0.114l-21.996,-0l-21.995,-0.019l-21.996,-0l-65.952,0.057l-43.957,0.076l-65.935,0.17l-9.525,0.038l-12.453,0.038l-21.978,0.076l-21.961,0.095l-21.979,0.076l-21.961,0.095l-21.961,0.114l-21.978,0.095l-21.961,0.114l-21.961,0.133l-21.961,0.114l-43.922,0.266l-21.961,0.152l-21.961,0.133l-65.883,0.455l-21.961,0.171l-21.943,0.152l-65.883,0.513l-43.905,0.361l-43.922,0.361l-43.905,0.36l-1.299,0.019l-42.623,0.361l-43.922,0.361l-43.922,0.38l-175.722,1.519l-35.8,0.304l-8.157,0.057l-43.939,0.361l-43.974,0.341l-43.957,0.342l-43.974,0.342l-43.974,0.323l-65.987,0.456l-22.013,0.152l-21.995,0.132l-44.026,0.266l-8.608,0.057l-13.405,0.076l-22.013,0.114l-22.013,0.133l-22.013,0.095l-22.03,0.114l-66.091,0.285l-22.03,0.076l-22.048,0.076l-22.03,0.076l-22.048,0.076l-22.065,0.057l-22.047,0.038l-22.048,0.057l-22.065,0.019l-22.065,0.038l-44.147,0.038l-44.164,-0l-5.196,-5.716l5.196,-5.697l22.082,-0l22.082,-0.019l66.195,-0.114l22.047,-0.057l22.065,-0.057l66.143,-0.228l22.03,-0.095l22.048,-0.095l22.03,-0.095l44.061,-0.228l22.013,-0.114l22.03,-0.114l44.026,-0.266l22.013,-0.151l13.405,-0.076l8.608,-0.057l21.996,-0.152l22.012,-0.152l21.996,-0.152l22.013,-0.171l21.996,-0.171l21.995,-0.152l21.979,-0.171l43.991,-0.361l43.957,-0.36l43.973,-0.38l43.957,-0.38l43.939,-0.399l8.158,-0.057l35.782,-0.323l87.878,-0.778l87.862,-0.798l43.922,-0.379l43.922,-0.399l42.623,-0.361l1.299,-0.019l43.904,-0.361l43.922,-0.361l43.922,-0.342l43.905,-0.341l21.961,-0.152l21.961,-0.171l65.883,-0.456l43.922,-0.266l21.961,-0.152l21.961,-0.114l21.978,-0.133l65.883,-0.341l21.978,-0.114l21.961,-0.095l21.979,-0.076l21.978,-0.095l21.961,-0.076l21.978,-0.076l12.47,-0.038l9.509,-0.019l43.956,-0.114l43.974,-0.076l21.979,-0.019l21.995,-0.038l65.97,0Z"/><g id="Laurien"><path d="M6629.16,932.284l1.56,-0.983c-0,-0 -2.34,15.943 -1.404,17.94c6.552,13.104 -0,23.853 -0,37.05c-0,6.989 4.992,16.521 1.872,22.761c-1.56,3.104 -4.992,1.373 -6.708,3.12c-5.46,5.366 -8.424,8.455 -15.6,12.043c-3.432,1.7 -6.24,-1.888 -8.892,0.905c-2.497,2.387 2.652,17.862 3.9,19.188c0.78,0.733 2.496,3.978 3.12,5.803c1.092,3.058 4.212,8.393 -0.156,8.284c-5.616,-0.125 -5.46,-5.07 -6.084,-6.958c-2.496,-7.566 -4.213,-21.715 -10.765,-24.991c-2.34,-1.217 -7.488,0.515 -9.672,0.905c-8.736,1.435 -28.548,4.04 -35.724,0.436c-10.764,-5.366 -19.344,-24.227 -22.776,-34.803c-1.092,-3.323 -3.12,-7.66 -3.12,-11.154c0,-1.139 -1.404,-6.256 -1.404,-6.256c-4.68,-0.031 -6.24,39.468 -5.928,56.987c0,1.17 -2.028,2.356 -3.432,2.371c-2.652,0.016 -5.46,1.685 -6.084,5.647l-1.248,0.016l0.624,-8.783l11.7,-112.024l2.184,-6.146l-18.096,-43.275l-2.964,1.217c-0,-0 -1.248,7.113 -1.248,10.717c-0,8.159 0.78,13.322 2.652,20.982c4.212,16.77 0.156,39.078 -3.12,55.786c-0.78,3.791 -0,10.343 -1.716,13.822c-2.964,5.928 -8.58,10.327 -11.232,15.631c-0.936,1.966 0.312,4.852 -0.936,7.129c-1.248,2.465 -4.056,3.432 -5.304,5.803c-1.716,3.292 -2.184,6.724 -4.524,11.17c-0.312,0.843 0.624,3.37 -0,4.009c-0.468,0.531 -2.496,0.328 -3.12,0.89c-0.624,0.717 0.468,3.868 -0,4.914c-1.404,4.305 -0,11.356 -2.184,15.615c-3.276,6.505 -9.36,25.569 -0.936,31.247c5.928,3.931 12.324,6.334 18.408,9.376c2.028,1.029 6.24,-0.453 8.424,-0.453c9.204,0 15.756,-0.358 20.904,4.914c8.424,8.378 -10.764,19.111 -16.38,20.967c-1.404,0.437 -9.516,-0.312 -9.516,1.794c-0,0.64 4.836,1.342 5.46,1.342c4.524,-0 13.572,-0.188 16.536,2.667c1.248,1.326 3.9,8.487 5.304,8.487l1.404,-2.231c0,5.008 -3.432,11.248 -7.644,13.385c-4.524,2.246 -7.332,7.207 -12.48,8.923c-11.856,3.947 -23.4,3.572 -35.724,3.572c-6.084,0 -10.92,-2.574 -16.536,-4.461c-2.184,-0.733 -6.24,-3.12 -6.24,-3.12c-0,-0 2.496,3.697 1.404,4.898c-0.936,0.921 -7.02,-1.497 -8.112,-1.778c-7.021,-1.779 -18.877,-1.279 -22.309,-8.034c-3.744,-7.582 0.468,-23.494 3.588,-29.906c1.56,-2.964 0.78,-7.316 2.184,-10.264c2.652,-5.367 -0.468,-13.245 2.34,-18.736c0.156,-0.421 2.184,-3.198 2.652,-2.683c0.624,0.639 0.468,2.683 0.468,2.683c0,-0 1.248,-3.526 1.248,-5.367c0,-3.088 0.936,-8.814 1.872,-12.043c2.808,-11.216 2.652,-23.65 4.837,-34.819c3.432,-16.692 17.628,-29.531 12.948,-48.189c-2.808,-11.357 -1.404,-23.837 -6.708,-34.367c-1.248,-2.636 2.028,-7.706 0.468,-10.717c-1.248,-2.543 -5.46,-11.841 -7.644,-12.933c-3.901,-1.965 -9.049,-3.619 -11.545,-8.486c-3.744,-7.519 -4.992,-18.658 -7.176,-27.222c-0.624,-2.683 1.248,-12.121 -0.468,-13.837c-2.028,-2.106 -6.24,2.23 -8.892,0.889c-2.184,-1.092 -4.68,-3.869 -6.24,-5.351c-0.624,-0.671 1.56,-3.448 1.872,-4.009c1.872,-3.776 2.652,-10.499 3.432,-14.727c1.248,-5.881 -0.468,-13.104 1.404,-18.751c2.652,-7.972 4.368,-22.012 2.184,-30.795c-1.56,-6.645 -0.312,-12.511 0.936,-19.188c1.092,-5.117 -0.312,-10.514 0.936,-15.615c0.78,-3.448 4.524,-8.144 6.24,-9.829c2.34,-2.371 0.78,-9.313 2.184,-12.043c1.092,-2.09 3.12,-3.432 4.056,-5.366c0.78,-1.591 -3.276,-1.966 -4.056,-3.557c-0.468,-1.154 0.78,-8.252 1.404,-9.376c1.404,-2.948 2.964,-3.432 4.836,-5.35c0.936,-0.936 -1.716,-4.431 -0.936,-6.256c1.248,-2.496 4.992,-5.445 6.708,-7.145c1.56,-1.513 -1.092,-12.464 -1.248,-12.932c-1.56,-3.167 3.9,-7.223 2.184,-8.939c-9.828,-9.782 -10.452,-24.352 -6.24,-41.044c2.808,-11.029 12.949,-19.563 20.125,-26.785c3.276,-3.292 8.736,-3.448 12.012,-6.693c1.092,-1.107 -1.716,-3.073 -2.184,-3.572c-2.34,-2.356 -3.9,-9.782 -5.46,-12.948c-7.488,-14.992 11.7,-28.221 23.712,-31.232c9.516,-2.402 15.6,3.479 19.188,10.702c0.624,1.139 3.9,6.786 2.184,8.486c-3.432,3.495 -4.992,7.644 -10.14,10.265c-2.652,1.279 -8.112,3.12 -8.112,3.12c-0,0 3.744,2.559 5.772,3.573c3.588,1.794 8.58,0.483 12.012,2.23c3.12,1.56 3.276,5.367 5.46,7.582c3.432,3.463 6.084,6.583 9.828,10.265c1.248,1.373 0.78,3.962 2.184,5.366c1.248,1.295 4.992,1.404 6.708,3.12c4.368,4.431 7.488,9.282 11.076,12.948c1.248,1.186 0,7.13 0,7.13l17.316,39.031c0,0 7.956,1.857 11.856,5.601c1.872,2.043 2.964,5.584 3.9,7.597c0.468,0.967 -0.78,3.12 -0.78,3.12c0,-0 2.34,1.809 2.964,3.12c0.78,1.404 -1.872,4.961 -0.936,5.865c4.056,4.322 -0.156,7.785 -2.496,9.205l20.904,50.263l58.657,134.348l-1.716,37.3Zm0.936,-36.333c-0.78,5.289 -11.076,7.504 -11.076,7.504c-0,-0 3.276,7.784 3.588,8.299c4.68,7.894 5.928,20.982 5.928,20.982l0.624,-0.39l0.936,-36.395Zm-50.857,-118.342l31.357,75.239l-8.58,6.958l11.856,30.981c-0,0 11.076,-2.168 14.976,1.248l-49.609,-114.426Zm-53.82,-39.11c0.156,-0.015 0.624,-0.062 0.78,-0.062c0.624,0 1.248,-0.328 1.872,-0.328c2.028,0 3.744,-0.608 5.616,-1.092c4.056,-0.982 5.928,-6.988 2.964,-9.859c0,-0.015 -2.184,2.091 -2.496,2.34c-1.716,2.013 -4.056,3.744 -5.928,5.772c-0.468,0.531 -2.34,2.871 -2.34,2.933l-0.468,0.296c-0.156,0.016 -0.156,0.032 0,0.032l0,-0.032Zm0.468,-0.296l0,-0.016l0,0.016Zm-50.076,-35.256c-0,1.451 3.432,2.355 3.9,4.025c0.156,0.124 2.028,1.841 2.496,2.121c0.78,0.359 1.716,-0.14 2.34,0.375c1.872,1.185 3.12,4.649 4.212,6.396c0.468,0.749 2.184,0.327 2.964,0.749c0.78,0.343 0.936,1.669 1.56,1.996c0.936,0.437 1.716,0.702 2.652,1.139c0.624,0.312 2.808,-2.73 3.588,-3.011c0.468,-0.171 2.028,-0.811 2.496,-0.624c0.312,0.063 0.936,0.749 1.092,0.5c0.468,-0.468 0.624,-1.529 1.404,-1.997c1.56,-1.03 3.744,-1.435 5.46,-2.262c1.404,-0.702 1.56,-3.136 2.808,-3.76c0.78,-0.39 1.716,-0.093 2.496,-0.374c0.936,-0.297 2.964,-2.262 3.588,-2.886c0.468,-0.531 0.312,-2.278 1.092,-2.996c0.936,-0.936 2.808,-1.326 3.588,-2.137c0.156,-0.156 -0.156,-1.887 -0.156,-2.246c0,-0.702 0.78,-3.604 0.624,-3.885c-1.404,-1.419 -2.34,-5.101 -4.212,-6.021c-1.872,-0.936 -3.9,-0.64 -4.68,-2.871c-0.312,-1.357 -0.312,-4.508 1.248,-5.257c0.156,-0.125 2.028,-0.983 2.028,-1.014c0.312,-0.608 -0.312,-1.201 -0.468,-1.622c-0.624,-1.373 -0.312,-2.949 -1.092,-4.259c-0.312,-0.468 -1.248,-0.718 -1.716,-0.25c0,0.141 0.156,0.687 0,0.874c-0.624,1.529 -0.624,3.026 -2.34,3.884c-0.936,0.437 -3.12,1.654 -2.34,3.136c0.156,0.421 0.78,0.686 0.468,1.373c-0.624,2.137 -2.028,3.619 -3.12,5.507c-1.404,2.262 -1.248,6.786 -4.056,8.143c-2.808,1.404 -7.488,0.125 -10.452,-0.375c-1.56,-0.249 -2.964,-0.202 -4.524,-0.624c-1.56,-0.452 -3.9,-2.402 -5.304,-1.622c-3.12,1.482 -4.68,3.9 -6.552,6.755c-0.312,0.359 -2.028,3.51 -1.248,3.51l0.156,-0.39c-0,-0.328 0.156,-0.702 0.468,-1.108l-0.468,1.108Z" style="fill:#231f20;"/></g><g id="Karola"><path d="M7303.61,1077.75c-0.157,0 -1.099,1.256 -1.727,1.413c-2.04,0.471 -5.023,1.099 -7.221,0.785c-10.676,-1.57 -13.501,-9.106 -11.303,-18.996c0.627,-2.512 2.511,-5.024 3.924,-7.222c0.471,-0.785 1.727,-1.256 1.727,-2.355c-1.884,0 -3.611,-6.593 -4.239,-8.634c-2.825,-8.321 -6.122,-21.194 -4.238,-29.985c1.413,-7.85 0.785,-16.328 2.041,-24.177c1.255,-7.693 6.436,-26.218 11.303,-31.084c1.57,-1.727 0.471,-9.577 0.471,-12.403c-0,-11.774 4.396,-23.392 4.396,-34.224c-0,-25.119 -6.28,-45.37 -11.304,-70.332c-0.785,-3.454 -1.099,-14.286 0.471,-17.583c0.471,-0.785 2.041,-5.495 1.099,-6.437c-8.948,-8.948 -2.198,-40.975 0.628,-52.121c1.884,-7.536 -5.338,-16.641 -7.064,-23.549c-2.983,-11.774 2.197,-23.705 2.197,-35.323c-2.197,0 8.007,-11.617 9.577,-12.873c5.338,-4.239 15.699,-9.734 19.31,-13.501c0.628,-0.628 1.099,-3.14 2.198,-3.14c-2.355,-0 -2.983,-2.512 -4.082,-4.082c-2.512,-3.768 -3.611,-8.164 -3.611,-12.402c0,-0.942 0.628,-5.652 0.314,-6.123c-2.041,-1.884 -5.024,-4.71 -5.024,-8.007c-0.942,0 -0.785,-0.941 -1.413,-1.412c-3.767,-2.512 -1.569,-7.379 -0.941,-10.99c0.628,-2.669 0.628,-5.809 1.569,-8.477c0.785,-2.512 3.768,-4.553 5.338,-6.751c3.14,-4.239 6.437,-10.832 11.304,-13.187c1.726,-0.942 4.395,-0.785 6.279,-1.413c1.57,-0.628 2.669,-2.512 4.082,-3.14c0.785,-0.471 3.454,0.471 4.553,0.471c4.552,-0 9.576,0.628 13.815,2.041c2.512,0.785 6.28,4.239 7.379,5.495c0.314,0.313 0.157,1.412 0.471,1.412c-0.314,0 1.569,-1.256 2.668,-0.785c2.983,1.413 6.28,3.454 8.321,5.966c3.297,4.396 3.297,7.379 1.57,12.245c-0.314,0.785 0.628,2.826 0.628,3.925c-0,0.628 0.628,2.512 0.628,1.884c-0,0 5.181,4.71 4.082,7.536c-2.669,8.32 -5.181,17.583 -5.181,26.217c-0.785,0 0.314,1.57 0.942,1.727c1.413,0.314 2.826,0.157 4.082,-0.157c0.942,-0.314 1.883,-1.099 2.668,-1.57c0.785,-0.314 1.884,0.785 2.983,0.314c1.256,-0.785 2.041,-3.767 3.454,-3.767c0,-1.884 1.57,-3.611 2.198,-5.338c2.355,-6.28 3.768,-12.717 5.809,-18.996c0.314,-1.099 2.982,-8.792 2.512,-8.792c-0,-1.413 0.313,-6.122 1.255,-7.221c0.628,-0.628 2.198,-2.041 2.198,-3.14c0,-2.512 7.065,-4.553 7.065,-7.693c-0,-9.105 4.553,-16.327 9.262,-22.763c1.727,-2.355 3.611,-4.239 5.338,-6.594c0.628,-0.785 3.14,-3.454 3.14,-2.826c-0,-2.355 0.314,-6.751 -0.314,-8.948c-0.785,-2.198 -2.826,-4.553 -3.14,-7.065c-0.314,-1.256 -1.413,-5.495 0,-5.495c0,-3.14 3.611,-5.181 5.809,-7.221c7.535,-7.693 22.136,-10.048 30.456,-1.727c6.28,6.279 3.297,19.624 0.314,26.531c-1.256,2.669 -2.512,4.082 -4.396,5.966c-0.785,0.628 -2.354,2.983 -2.04,2.198c-1.57,-1.413 -2.355,5.024 -1.884,5.965c0.628,1.57 3.453,1.413 4.552,2.355c2.669,2.041 2.669,7.065 0,9.106c-0.942,0.628 -3.924,1.099 -5.023,0.314c-1.727,-1.099 0.628,-4.239 -1.256,-5.024c-1.099,-0.628 -1.57,0.785 -2.826,0.157c-0.942,-0.471 -4.553,-1.884 -4.553,-0.785c-0.942,-1.099 -5.966,5.809 -5.809,6.123c1.413,1.413 2.669,2.041 3.611,3.925c0.942,1.884 -0.628,3.453 0.942,5.337c1.256,1.57 3.297,0.942 4.867,1.727c1.256,0.628 1.57,2.512 2.198,3.611c0.157,0.471 0.785,1.57 0.628,2.041c-0.628,2.041 -9.734,5.024 -10.676,1.727c-0.628,-1.57 0.314,-3.925 -0.314,-5.181c-0.628,-1.413 -5.651,-4.553 -4.709,-4.553c-4.239,0 -3.297,8.007 -2.512,11.147c0.157,0.471 0.942,1.099 0.628,1.727c-1.57,3.139 -2.983,5.18 -3.925,8.791c-0.157,0.628 -1.256,1.256 -1.256,1.413c0,-1.256 -2.512,1.727 -3.297,2.198c-1.57,0.942 -7.535,0.942 -6.75,0.628c-0,-1.57 -2.826,5.966 -3.297,7.379c-2.198,5.494 -3.14,10.675 -4.239,16.484c-0.157,1.727 -3.14,10.204 -1.727,9.733c-2.041,0 4.082,4.239 4.553,4.553c5.181,3.925 10.832,7.378 16.013,11.303c1.256,0.942 4.082,1.727 4.082,3.297c-0.471,0 1.413,2.512 1.57,2.669c1.413,1.413 2.982,3.297 4.552,4.553c5.495,4.081 10.048,6.593 16.327,9.105c16.799,6.751 27.317,26.532 24.962,44.272c-0.314,3.454 -2.669,6.436 -4.71,8.948c-13.03,16.327 -31.084,2.355 -40.817,-10.518c-1.57,-2.198 -10.99,-5.966 -10.99,-8.478c-1.884,3.611 3.297,11.461 3.611,15.386c0.785,9.419 2.041,18.681 3.454,27.944c0.471,3.611 -1.57,6.751 -1.57,10.204c-0,-0.471 -0.785,-1.255 -0.314,-1.255c0.942,-0 3.454,3.767 3.925,4.395c4.395,5.495 9.105,10.833 13.815,16.17c8.948,10.205 15.385,25.904 16.798,39.719c0.471,3.768 -1.256,7.85 -1.884,11.618c-0.942,6.436 -2.983,12.088 -3.925,18.368c-0.314,2.04 0.471,4.709 1.57,6.279c0.314,0.471 0.628,3.297 0.628,1.884c-0.628,0 -0.157,-1.099 -1.413,-0.785c-13.972,3.611 -16.17,17.897 -18.682,30.928c-0.785,3.924 -1.413,7.378 -0.785,11.46c1.099,6.28 2.512,12.559 3.768,18.839c0.942,5.809 2.512,12.402 6.28,17.112c1.413,1.727 7.378,6.28 7.378,5.181c-2.197,-0 -0.157,4.395 -0.314,6.593c-0.157,4.239 -0.471,8.949 -0.314,13.188c1.099,18.839 6.437,36.108 2.512,55.104c-2.826,12.873 -9.89,22.606 -16.484,33.91c-2.355,4.239 -5.494,6.75 -9.89,8.948c-1.413,0.785 -3.925,4.553 -3.925,2.198c-0.785,-0.785 0.157,1.099 -0,2.669c-0.471,2.983 -1.256,5.495 -3.297,7.85c-5.024,5.808 -12.245,7.849 -19.624,8.948c-5.18,0.628 -11.617,0.785 -15.542,-3.14c-1.413,-1.413 -2.198,-4.709 -2.669,-6.279c-0.157,-0.628 -1.413,-2.983 -1.413,-2.512c-3.611,-0 -9.419,3.297 -13.344,4.239c-1.727,0.471 -3.611,0.314 -5.338,0.314c-0.471,-0 -2.355,-0.628 -1.727,-0c0.314,0.313 0.157,1.412 0.157,1.883c0.314,1.57 0.157,3.611 0,5.338c-0.157,0.628 -0.314,1.57 -0.471,2.198c-0.157,0 -0.785,0.471 -0.471,0.471c-0.157,-0 -0.157,2.826 -0.157,3.14c-0.157,3.925 0,7.849 0.314,11.774c0,0.785 0.314,3.454 -0.314,4.082c-0.471,0.471 -2.197,-0.157 -2.825,0.157c-0.157,-0 -0.785,-0 -0.785,-0.157c-0,-1.57 -0.471,-3.611 -0.628,-5.024c-0.942,-5.337 -1.57,-10.518 -1.57,-16.013c-2.669,0 -1.884,-3.611 -2.198,-5.181c-0.157,-1.099 -0.628,-2.041 -0.628,-3.139l-0,-2.669c-0,-0.157 -0.157,-1.099 -0.157,-0.785c-0,1.099 -2.826,0.157 -3.454,-0c-3.14,-0.314 -7.064,0.314 -10.047,-0.628c-5.809,-1.884 -12.717,-4.71 -17.74,-8.321c-2.512,-1.884 -4.396,-4.71 -6.594,-6.907c-1.727,-1.727 -3.768,-3.297 -5.338,-4.867c-0.314,-0.314 -2.355,-1.884 -2.355,-2.198" style="fill:#231f20;"/></g><g><path d="M6875.13,1111.12c-0.97,-0.108 9.912,-1.185 12.821,-1.185c9.373,-0 17.885,-1.401 27.043,-3.232c14.545,-2.909 25.211,-11.852 38.463,-16.269c5.495,-1.832 13.791,-11.852 17.885,-11.852c-1.616,-1.616 2.586,3.771 3.664,5.818c2.047,4.202 4.525,8.404 5.387,12.929c1.077,5.603 -4.741,22.303 -1.616,25.427c1.831,1.832 8.403,0.97 10.774,2.263c8.727,4.309 27.689,0.969 32.537,-3.879c5.172,-5.172 -6.895,-17.67 -8.727,-19.393c-1.939,-2.047 -4.309,-9.805 -4.309,-7.111c-0.647,-0.216 3.232,-0.97 4.74,-1.724c2.586,-1.293 4.31,-3.663 4.31,-7.003c-0,-11.205 -2.047,-24.996 -5.387,-35.232c-2.155,-6.464 1.401,-14.221 -3.34,-18.962c-0.754,-0.862 -0.431,-8.619 -1.508,-8.619c-2.694,-0 1.831,-17.023 1.831,-20.686c0,-9.482 2.478,-21.333 -0.539,-30.383c-2.154,-6.357 -3.555,-13.252 1.078,-17.778c3.124,-3.124 3.34,-9.265 3.771,-9.265c-2.047,-0.324 -3.448,-5.495 -4.418,-6.465c-2.909,-2.909 -7.541,-4.309 -9.696,-6.572c-0.216,-0.108 4.74,-7.865 5.387,-9.158c5.387,-10.882 14.222,-20.255 17.346,-32.538c2.155,-8.511 -1.616,-17.669 -1.616,-24.349c-0.754,-0.216 -0,-6.357 -0.216,-7.111c-3.232,-9.481 8.189,-23.164 4.31,-30.814c-2.478,-4.956 -5.71,-10.343 -8.08,-15.191c-1.401,-2.694 -9.374,-5.28 -7.65,-7.003c0.97,-0.97 -0.646,-2.586 -0.323,-3.879c0.538,-2.155 1.077,-3.556 1.077,-5.926c0,-2.801 2.263,-10.774 0,-13.036c-1.508,0.969 7.434,0.754 9.589,0.754c7.865,-0 12.39,-2.263 15.622,-8.727c7.65,-15.192 5.495,-28.552 -3.77,-37.925c-1.509,-1.508 -2.909,-5.926 -5.387,-5.926c1.185,1.293 0.107,-3.555 0.754,-5.171c1.616,-4.956 0.215,-7.973 -3.34,-11.421c-7.758,-7.757 -11.636,-23.164 -22.734,-28.659c-6.68,-3.34 -15.083,-2.693 -21.655,-6.033c-1.509,-0.647 -9.266,-1.078 -8.62,-1.078c1.078,0 -11.313,-16.161 -11.313,-14.545c6.788,-6.357 12.175,-22.949 18.64,-29.413c1.4,-1.508 5.494,5.926 6.464,5.926c-1.401,1.724 3.771,-2.155 5.387,-3.664c2.478,-2.585 4.202,-5.925 6.465,-8.08c1.939,-1.939 5.387,5.387 8.08,2.693c3.232,-3.232 0,-8.188 1.616,-9.804c0.647,-0.646 10.451,8.943 14.114,1.616c2.802,-5.495 -7.542,-7.649 -4.848,-12.929c2.693,-5.602 7.434,-7.865 9.697,-12.498c9.05,-17.992 -2.909,-34.154 -18.963,-34.154c0,0.216 0.216,-2.37 0,-2.585c-1.939,-1.832 -1.077,-8.296 -3.771,-9.697c-2.909,-1.401 -7.649,4.848 -9.265,6.464c-9.697,9.805 -13.899,28.121 -21.118,40.08c-1.4,2.37 -10.019,17.346 -8.08,17.346c0.215,-1.185 -4.202,4.741 -4.848,5.818c-3.017,4.418 -5.172,9.697 -7.542,14.545c-1.401,2.694 -3.879,8.189 -3.879,8.189c-0,-0 1.616,-7.542 1.616,-11.421c0,-7.326 -1.077,-17.993 -8.08,-22.733c-14.222,-9.481 -24.673,-10.774 -42.343,-5.279c-20.794,6.464 -15.299,20.686 -17.777,23.164c-3.232,3.232 -7.973,7.218 -10.235,11.959c-0.647,1.077 7.757,9.481 3.771,13.468c-1.832,1.831 -3.34,17.13 -1.616,20.578c2.801,5.71 5.171,4.848 12.39,4.848c0.862,0 4.525,-1.4 5.495,-0.538c0.323,0.431 3.663,3.986 2.154,5.495c-6.141,6.033 -21.117,6.895 -27.689,13.467c-10.343,10.451 -13.36,28.228 -17.885,41.696c-3.771,11.528 -15.407,22.41 -17.777,34.692c-3.663,18.316 -6.034,34.693 -6.034,53.655c-0.215,0.216 1.401,3.125 1.94,6.141c0.862,4.202 0.538,8.62 0.538,13.037c0,5.603 0.431,12.606 -2.693,15.73c-1.616,1.509 0.108,10.559 -1.078,12.929c-2.801,5.603 1.832,12.283 -2.693,16.808c-2.263,2.155 3.771,5.925 5.387,5.925c-2.155,1.186 -0.323,9.697 -0.216,11.529c0.97,8.619 0.539,17.669 0.539,26.504c0,3.663 -5.602,3.663 -8.08,4.848c-2.478,1.293 -3.233,1.832 -3.233,1.078c-2.478,-1.078 1.293,7.865 0.324,9.696c-2.478,5.064 -6.465,8.727 -9.697,13.576c-14.545,21.871 -31.245,55.809 -22.195,82.852c6.465,19.609 27.905,41.265 46.006,50.315c7.865,3.987 16.376,4.956 23.81,8.727c2.586,1.186 10.343,-0.323 10.343,2.694c0.862,0.431 -0.215,1.939 -0.107,2.909c0.215,2.909 -0.323,7.111 1.077,9.804c1.939,3.879 8.081,2.909 10.128,-0.215c2.155,-3.34 2.047,-8.296 2.047,-12.175" style="fill:#231f20;"/></g><clipPath id="_clip1"><path d="M5329.94,0l0,1695.83l-3040.57,0l-0,-1695.83l3040.57,0Zm-2245.87,558.529l-242.727,482.828l16.569,-0.156l8.284,-0.062l8.267,-0.062l8.284,-0.047l8.285,-0.062l8.284,-0.047l8.267,-0.062l8.284,-0.047l8.267,-0.031l8.285,-0.047l8.267,-0.031l8.284,-0.031l16.534,-0.062l8.284,-0.016l8.267,-0.031l24.801,-0.047l10.421,0l6.131,-0.015l24.8,-0l8.267,0.015l16.517,0.016l16.534,0.031l16.517,0.047l16.516,0.062l16.534,0.062l16.517,0.062l16.516,0.094l16.499,0.093l16.517,0.094l16.499,0.124l16.517,0.109l32.998,0.28l16.517,0.14l16.482,0.156l32.998,0.342l16.499,0.187l16.482,0.186l16.499,0.187l16.482,0.202l0.539,0.016l15.96,0.202l32.964,0.436l16.482,0.233l16.482,0.249l16.482,0.234l16.482,0.249l65.927,1.058l16.464,0.28l16.482,0.28l16.465,0.295l16.482,0.281l16.481,0.295l16.465,0.296l16.464,0.311l16.482,0.296l16.465,0.311l16.482,0.311l16.464,0.311l16.465,0.327l32.946,0.638l32.946,0.653l32.929,0.654l32.946,0.669l32.947,0.654l131.785,2.676l32.964,0.669l32.946,0.653l32.964,0.654l32.929,0.638l16.516,0.311l16.5,0.327l32.963,0.622l32.999,0.623l16.482,0.295l49.497,0.887l49.498,0.84l16.516,0.265l16.5,0.264l16.516,0.265l16.499,0.249l16.517,0.249l16.517,0.233l16.516,0.249l16.534,0.218l16.517,0.233l16.534,0.203l16.516,0.217l7.798,0.094l8.736,0.109l16.534,0.202l16.534,0.187l16.534,0.171l16.551,0.171l16.534,0.171l33.103,0.311l16.551,0.14l16.552,0.125l16.568,0.124l16.552,0.109l11.636,0.078l11.636,0.062l11.619,0.063l23.273,0.124l11.619,0.047l11.636,0.062l11.636,0.047l11.619,0.046l11.636,0.031l11.637,0.047l11.636,0.031l11.619,0.031l11.636,0.031l23.273,0.047l23.255,0.047l23.273,0.031l8.458,-0l14.814,0.015l23.255,0.016l69.818,0l23.255,-0.016l69.818,-0.046l-53.424,-492.265l-25.945,-0.874l-51.923,-1.709l-25.962,-0.835l-25.962,-0.817l-12.99,-0.418l-12.989,-0.398l-12.99,-0.418l-12.989,-0.399l-13.007,-0.38l-12.99,-0.398l-52.027,-1.52l-13.024,-0.36l-13.007,-0.361l-13.024,-0.361l-13.025,-0.342l-13.041,-0.342l-13.024,-0.341l-26.083,-0.646l-13.059,-0.323l-26.118,-0.608l-13.059,-0.284l-26.152,-0.57l-22.134,-0.456l-11.05,-0.228l-11.067,-0.209l-11.05,-0.209l-11.067,-0.208l-11.05,-0.209l-11.067,-0.209l-11.049,-0.19l-11.05,-0.209l-22.1,-0.38l-11.049,-0.171l-2.014,-0.034l-201.251,234.467l-279.633,-135.23l32.721,-103.883l-2.016,-0.01l-44.025,-0.19l-44.026,-0.152l-44.026,-0.114l-21.996,-0.038l-22.013,-0.038l-43.991,-0.038l-65.97,0l-21.995,0.038l-21.979,0.019l-21.995,0.038l-21.979,0.038l-43.956,0.114l-9.509,0.019l-12.47,0.038l-21.978,0.076l-21.961,0.076l-21.978,0.095l-21.979,0.076l-21.961,0.095l-21.978,0.114l-65.883,0.341l-21.978,0.133l-21.961,0.114l-21.961,0.152l-43.922,0.266l-65.883,0.456l-21.961,0.171l-21.961,0.152l-43.905,0.341l-43.922,0.342l-43.922,0.361l-43.904,0.361l-1.299,0.019l-37.1,0.314Z"/></clipPath><g clip-path="url(#_clip1)"><g transform="matrix(2231.38,0,0,2231.38,5362.47,1627.52)"></g><text x="2710.52px" y="1627.52px" style="font-family:'ArialRoundedMTBold', 'Arial Rounded MT Bold', sans-serif;font-size:2231.38px;fill:#6b6b6b;stroke:#000;stroke-width:20.83px;">21</text></g></g></g></svg>